<?xml version="1.0" encoding="UTF-8"?>
<svg width="201px" height="101px" viewBox="0 0 201 101" version="1.1" xmlns="http://www.w3.org/2000/svg" xmlns:xlink="http://www.w3.org/1999/xlink">
    <!-- Generator: Sketch 41.2 (35397) - http://www.bohemiancoding.com/sketch -->
    <title>Group</title>
    <desc>Created with Sketch.</desc>
    <defs></defs>
    <g id="Page-1" stroke="none" stroke-width="1" fill="none" fill-rule="evenodd">
        <g id="Group">
            <path d="M7.01,96.994 L3.591,96.994 L3.591,86.355 L7.01,86.355 C10.62,86.355 12.14,88.943 12.211,91.532 C12.282,94.239 10.786,96.994 7.01,96.994 Z M7.01,83.386 L0.48,83.386 L0.48,100.01 L7.01,100.01 C12.829,100.01 15.393,95.759 15.322,91.556 C15.251,87.447 12.71,83.386 7.01,83.386 L7.01,83.386 Z" id="Fill-3" fill="#0F171E"></path>
            <path d="M22.14,100.01 L34.584,100.01 L34.584,96.923 L25.251,96.923 L25.251,93.17 L34.252,93.17 L34.252,90.25 L25.251,90.25 L25.251,86.426 L34.584,86.426 L34.584,83.386 L22.14,83.386 L22.14,100.01" id="Fill-4" fill="#0F171E"></path>
            <polyline id="Fill-5" fill="#0F171E" points="49.192 96.329 44.181 83.386 40.666 83.386 47.577 100.081 50.83 100.081 57.741 83.386 54.226 83.386 49.192 96.329"></polyline>
            <path d="M64.417,100.01 L76.861,100.01 L76.861,96.923 L67.528,96.923 L67.528,93.17 L76.529,93.17 L76.529,90.25 L67.528,90.25 L67.528,86.426 L76.861,86.426 L76.861,83.386 L64.417,83.386 L64.417,100.01" id="Fill-6" fill="#0F171E"></path>
            <polyline id="Fill-7" fill="#0F171E" points="87.218 83.386 84.083 83.386 84.083 100.01 95.767 100.01 95.767 97.112 87.218 97.112 87.218 83.386"></polyline>
            <path d="M110.588,97.516 C106.67,97.516 105.197,94.595 105.126,91.864 C105.055,89.062 106.67,85.904 110.588,85.904 C114.507,85.904 116.074,89.038 116.026,91.84 C115.979,94.571 114.507,97.516 110.588,97.516 Z M110.588,83.054 C104.841,83.054 102.039,87.447 102.039,91.817 C102.039,96.186 104.746,100.39 110.588,100.39 C116.43,100.39 119.066,96.091 119.114,91.793 C119.161,87.447 116.311,83.054 110.588,83.054 L110.588,83.054 Z" id="Fill-8" fill="#0F171E"></path>
            <path d="M134.054,92.244 L129.352,92.244 L129.352,86.355 L134.054,86.355 C138.044,86.355 138.067,92.244 134.054,92.244 Z M134.054,83.363 C131.442,83.363 128.829,83.386 126.217,83.386 L126.217,100.01 L129.352,100.01 L129.352,95.118 L134.054,95.118 C142.2,95.118 142.176,83.363 134.054,83.363 L134.054,83.363 Z" id="Fill-9" fill="#0F171E"></path>
            <path d="M147.023,100.01 L159.467,100.01 L159.467,96.923 L150.134,96.923 L150.134,93.17 L159.135,93.17 L159.135,90.25 L150.134,90.25 L150.134,86.426 L159.467,86.426 L159.467,83.386 L147.023,83.386 L147.023,100.01" id="Fill-10" fill="#0F171E"></path>
            <path d="M169.847,91.627 L169.847,86.307 L174.621,86.307 C176.591,86.307 177.47,87.637 177.47,88.967 C177.47,90.297 176.615,91.627 174.621,91.627 L169.847,91.627 Z M180.605,88.896 C180.605,86.022 178.539,83.41 174.621,83.386 C171.985,83.386 169.349,83.363 166.713,83.363 L166.713,100.01 L169.847,100.01 L169.847,94.453 L172.863,94.453 L177.708,100.01 L181.436,100.01 L181.436,99.796 L176.401,94.12 C179.56,93.479 180.605,91.176 180.605,88.896 L180.605,88.896 Z" id="Fill-11" fill="#0F171E"></path>
            <path d="M194.096,89.846 C192.102,89.608 190.392,89.204 190.392,87.756 C190.392,86.521 191.508,85.547 193.835,85.547 C195.64,85.547 197.207,86.45 197.777,87.4 L200.271,86.117 C199.012,83.553 196.328,82.816 193.74,82.816 C190.677,82.84 187.304,84.241 187.304,87.661 C187.304,91.389 190.439,92.292 193.835,92.695 C196.044,92.933 197.682,93.574 197.682,95.141 C197.682,96.946 195.83,97.635 193.859,97.635 C191.84,97.635 189.917,96.828 189.181,94.999 L186.568,96.353 C187.803,99.392 190.415,100.437 193.812,100.437 C197.516,100.437 200.793,98.846 200.793,95.141 C200.793,91.176 197.564,90.273 194.096,89.846" id="Fill-12" fill="#0F171E"></path>
            <polyline id="Fill-13" fill="#6CBFA6" points="40.297 12.231 33.772 4.837 0.48 34.191 0.48 41.422 33.704 70.713 40.978 63.439 11.674 37.72 40.297 12.231"></polyline>
            <polyline id="Fill-14" fill="#6CBFA6" points="167.173 4.837 160.648 12.231 189.271 37.72 159.967 63.439 167.241 70.713 200.465 41.422 200.465 34.191 167.173 4.837"></polyline>
            <polyline id="Fill-15" fill="#0F171E" points="66.737 50.243 56.678 19.459 46.658 19.459 62.563 62.778 66.737 50.243"></polyline>
            <polyline id="Fill-16" fill="#6CBFA6" points="61.296 74.811 73.116 74.811 98.073 0.739 85.963 0.739 61.296 74.811"></polyline>
            <polyline id="Fill-17" fill="#0F171E" points="111.033 19.459 99.862 53.648 91.367 28.414 86.903 41.664 90.317 52.091 96.071 66.851 103.653 66.851 121.054 19.459 111.033 19.459"></polyline>
            <path d="M140.905,44.778 L127.5,44.778 L127.5,27.988 L140.905,27.988 C152.279,27.988 152.347,44.778 140.905,44.778 Z M140.905,19.459 C135.109,19.459 129.313,19.493 123.517,19.511 L118.563,33.003 L118.563,66.918 L127.5,66.918 L127.5,52.971 L140.905,52.971 C164.127,52.971 164.059,19.459 140.905,19.459 L140.905,19.459 Z" id="Fill-18" fill="#0F171E"></path>
        </g>
    </g>
</svg>